<?xml version="1.0" encoding="iso-8859-1"?>
<!-- Uploaded to: SVG Repo, www.svgrepo.com, Generator: SVG Repo Mixer Tools -->
<svg height="800px" width="800px" version="1.1" id="Layer_1" xmlns="http://www.w3.org/2000/svg" xmlns:xlink="http://www.w3.org/1999/xlink" 
	 viewBox="0 0 511.988 511.988" xml:space="preserve">
<path style="fill:#E5E8EC;" d="M123.266,300.978c-0.953-3.656,0.109-7.547,2.797-10.219l287.96-287.64
	c4.172-4.164,10.922-4.156,15.078,0.008l67.889,67.88c0.328,0.336,0.641,0.68,0.922,1.039l1.344,1.234
	c2.078,1.906,3.312,4.57,3.438,7.398l1.312,30.14c0.25,5.891-4.312,10.867-10.188,11.125l-19.5,0.844l0.844,19.483
	c0.266,5.891-4.297,10.867-10.187,11.125l-19.484,0.844l0.844,19.492c0.125,2.82-0.891,5.578-2.796,7.664
	c-1.906,2.086-4.578,3.328-7.406,3.453l-19.484,0.844l0.844,19.484c0.125,2.828-0.875,5.586-2.781,7.671
	c-1.922,2.086-4.578,3.328-7.406,3.453l-19.483,0.844l0.844,19.484c0.125,2.828-0.891,5.586-2.797,7.672s-4.578,3.328-7.391,3.453
	l-19.498,0.844l0.844,19.483c0.125,2.828-0.875,5.602-2.781,7.68c-1.922,2.078-4.578,3.328-7.406,3.453l-19.484,0.844l0.844,19.484
	c0.125,2.828-0.891,5.578-2.797,7.672c-1.906,2.078-4.578,3.328-7.406,3.453l-19.484,0.844l0.84,19.484
	c0.266,5.889-4.296,10.857-10.187,11.123l-19.483,0.844l0.844,19.484c0.25,5.891-4.312,10.859-10.203,11.125l-19.484,0.844
	l0.844,19.482c0.266,5.891-4.312,10.859-10.187,11.125l-30.14,1.297c-0.125,0.016-0.234,0.016-0.344,0.016L123.266,300.978z"/>
<path style="fill:#5E9CEA;" d="M214.373,382.211c-0.609-10.438-5.141-19.625-13.125-26.562
	c-17.905-15.562-12.968-39.951-8.202-63.529c3.796-18.781,7.374-36.515-1.938-49.108l-7.375-9.961L7.973,409.193l4.343,7.156
	c8.438,13.875,20.343,17.516,29.906,20.438c10.515,3.203,17.453,5.328,22.921,19.062c20.202,50.67,39.436,56.139,46.764,56.139
	l4.64-0.172l72.264-72.264l0.344-0.375C191.905,436.162,215.951,408.881,214.373,382.211z M162.906,420.021
	c-0.016,0.016-0.031,0.031-0.047,0.047l-0.125,0.141c-0.016,0-0.016,0-0.031,0.016l-22.453,22.453l-0.016,0.016
	c-0.797,0.781-1.703,1.453-2.766,1.984c-1.516,0.766-3.156,1.125-4.75,1.125c-3.922,0-7.688-2.156-9.562-5.891l-30.171-60.357
	c-2.078-4.172-1.156-9.078,1.937-12.234c0.031-0.016,22.687-22.688,22.687-22.688s0.016-0.016,0.031-0.016
	c0.781-0.781,1.688-1.453,2.734-1.984c5.266-2.625,11.672-0.5,14.312,4.781l30.171,60.342
	C166.952,411.943,166.031,416.849,162.906,420.021z"/>
<g>
	<path style="fill:#4B89DA;" d="M201.248,355.648c-0.75-0.641-1.453-1.328-2.125-2c-0.047,0.047-0.109,0.094-0.156,0.141
		l-9.89,9.906c-4.172,4.156-4.172,10.906,0,15.078c4.156,4.172,10.905,4.172,15.077,0l7.859-7.859
		C209.826,365.133,206.201,359.961,201.248,355.648z"/>
	<path style="fill:#4B89DA;" d="M196.701,270.174c-2.796-0.055-5.624,0.977-7.749,3.117l-14.953,14.938
		c-4.156,4.172-4.156,10.922,0,15.094c4.171,4.172,10.921,4.172,15.093,0l2.172-2.172c0.562-3.016,1.172-6.031,1.781-9.031
		C194.577,284.541,196.077,277.135,196.701,270.174z"/>
</g>
</svg>