<?xml version="1.0" encoding="UTF-8"?>
<svg version="1.1" xmlns="http://www.w3.org/2000/svg" width="1658" height="352">
<path d="M0 0 C19.38486534 -0.04520238 38.7696878 -0.08202148 58.15459251 -0.10362434 C67.15597805 -0.11392295 76.15732844 -0.12795615 85.15869141 -0.15087891 C93.00718511 -0.1708562 100.85565335 -0.18372672 108.70417178 -0.18817699 C112.85725027 -0.19077703 117.01025593 -0.19685861 121.163311 -0.21146011 C125.07846981 -0.22511269 128.99352631 -0.22920724 132.90870667 -0.22621536 C134.33968793 -0.22676211 135.77067289 -0.23069361 137.20163345 -0.23841095 C153.94187428 -0.32420604 168.20807153 2.54703974 181 14 C181.69996094 14.60714844 182.39992188 15.21429688 183.12109375 15.83984375 C188.54582251 20.85438508 191.93259923 26.3116143 195 33 C195.41507813 33.85722656 195.83015625 34.71445313 196.2578125 35.59765625 C201.32849309 47.91976468 200.95017217 64.78773615 196.31640625 77.1875 C189.48123394 91.7908355 178.54479559 103.12353643 163.3671875 109.0234375 C157.69551512 110.81917076 151.84862307 111.9422703 146 113 C155.92002087 122.29560091 155.92002087 122.29560091 166.078125 131.328125 C168.41105074 133.35758073 170.70511245 135.427647 173 137.5 C175.98062721 140.18983431 178.97245233 142.86310364 182 145.5 C185.89651647 148.89374015 189.73064945 152.35430003 193.56640625 155.81640625 C195.67511146 157.70848685 197.79919801 159.57905758 199.9375 161.4375 C203.31790204 164.38754285 206.66745591 167.37106919 210 170.375 C210.94875 171.22835937 211.8975 172.08171875 212.875 172.9609375 C213.57625 173.63382813 214.2775 174.30671875 215 175 C215 175.33 215 175.66 215 176 C207.93902478 176.25515951 200.87925154 176.42932601 193.81469727 176.54931641 C191.41580794 176.59937064 189.01722008 176.66743916 186.61938477 176.75439453 C164.11058431 177.5497585 164.11058431 177.5497585 157.11328125 171.1796875 C155.69807159 169.48909655 154.32092324 167.7652416 153 166 C151.69716334 164.79937286 150.36894723 163.62466545 149 162.5 C145.79100756 159.71185902 142.64083556 156.86471815 139.5 154 C135.71337002 150.54671847 131.8952368 147.13900949 128.02734375 143.77734375 C125.66510827 141.70640513 123.33204147 139.60487152 121 137.5 C117.38732096 134.23977745 113.74511009 131.01856435 110.07421875 127.82421875 C106.81448051 124.95736798 103.60589216 122.03411516 100.39453125 119.11328125 C99.60433594 118.41589844 98.81414062 117.71851563 98 117 C97.25091873 116.30767273 96.50183746 115.61534546 95.73005676 114.90203857 C92.49964529 112.6514014 90.82419264 112.48694057 86.92456055 112.45410156 C85.70700073 112.43428223 84.48944092 112.41446289 83.23498535 112.39404297 C81.96505737 112.39291504 80.69512939 112.39178711 79.38671875 112.390625 C77.62503357 112.36718018 77.62503357 112.36718018 75.82775879 112.34326172 C71.44787724 112.29072856 67.06763927 112.27240656 62.6875 112.25 C47.9921875 112.12625 47.9921875 112.12625 33 112 C33 133.12 33 154.24 33 176 C22.11 176 11.22 176 0 176 C0 143.66 0 111.32 0 78 C10.57933594 77.97421875 21.15867187 77.9484375 32.05859375 77.921875 C38.76238829 77.89670746 45.46615413 77.87053803 52.16992188 77.83984375 C62.80948688 77.79131507 73.44895645 77.74686695 84.08862305 77.72900391 C91.83795868 77.71597462 99.5871 77.68897747 107.33632618 77.64538693 C111.43741899 77.6228007 115.53827238 77.60708761 119.63943291 77.60811615 C123.5047162 77.60886445 127.36947081 77.5908461 131.23461723 77.55883217 C132.64825019 77.55035861 134.06194262 77.5485659 135.47558975 77.55419731 C144.138649 77.5840936 152.22458103 77.4459122 158.86823177 71.26067734 C163.83004844 65.89126727 165.55618802 60.9902042 165.37109375 53.6953125 C164.59549363 48.0620064 162.37345234 43.01327864 157.9921875 39.296875 C152.99653675 36.0893354 148.94298193 34.87687206 142.98262024 34.84178162 C141.09587082 34.82709839 141.09587082 34.82709839 139.17100525 34.81211853 C137.77456703 34.80621435 136.37812841 34.8004039 134.98168945 34.79467773 C133.51328251 34.78509901 132.04487833 34.77508893 130.57647705 34.76467896 C126.58713014 34.73762324 122.59777139 34.71661728 118.60838342 34.69667697 C114.44033156 34.67482154 110.27231622 34.64743068 106.10429382 34.62062073 C98.21019459 34.57068786 90.3160751 34.52575123 82.42193621 34.48259836 C73.43531463 34.43323107 64.44872969 34.37831106 55.46214354 34.32291877 C36.97479485 34.20908959 18.4874125 34.10298564 0 34 C0 22.78 0 11.56 0 0 Z " fill="#3F3F3F" transform="translate(791,87)"/>
<path d="M0 0 C15.18 0 30.36 0 46 0 C58.75069509 13.81325301 58.75069509 13.81325301 64.72265625 21.25390625 C67.21826547 24.26319147 69.83766805 27.13937022 72.5 30 C76.78960407 34.60998943 80.80411122 39.37783516 84.75390625 44.28515625 C87.0883059 47.10673495 89.51990598 49.80590712 92 52.5 C96.09351091 56.94727112 99.92442499 61.54717463 103.71875 66.25 C106.86194258 70.03905407 110.20158595 73.63269352 113.53515625 77.25390625 C115.92707297 79.91875166 118.19254884 82.64831825 120.4375 85.4375 C123.65943101 89.43223986 127.00655495 93.24554349 130.5 97 C134.78955113 101.61004336 138.80410672 106.37782956 142.75390625 111.28515625 C145.86934959 115.05077907 149.1864165 118.61638975 152.49609375 122.2109375 C155.89481329 125.9967187 159.0924253 129.92135722 162.28515625 133.8828125 C163.82726076 135.86206774 163.82726076 135.86206774 165 137 C165.33 91.79 165.66 46.58 166 0 C177.22 0 188.44 0 200 0 C200 58.08 200 116.16 200 176 C184.49 176 168.98 176 153 176 C146.81513171 169.25287096 140.93990246 162.78896972 135.24609375 155.71484375 C132.9116941 152.89326505 130.48009402 150.19409288 128 147.5 C123.90648909 143.05272888 120.07557501 138.45282537 116.28125 133.75 C113.13805742 129.96094593 109.79841405 126.36730648 106.46484375 122.74609375 C104.07292703 120.08124834 101.80745116 117.35168175 99.5625 114.5625 C96.34056899 110.56776014 92.99344505 106.75445651 89.5 103 C85.21044887 98.38995664 81.19589328 93.62217044 77.24609375 88.71484375 C74.9116941 85.89326505 72.48009402 83.19409288 70 80.5 C66.72581577 76.94329756 63.59357567 73.32838189 60.5625 69.5625 C56.911177 65.03537466 53.06788945 60.75842045 49.1081543 56.50488281 C45.10503032 52.17848128 41.37373661 47.676587 37.6796875 43.08203125 C36.16726823 41.13181795 36.16726823 41.13181795 35 40 C34.67 84.88 34.34 129.76 34 176 C22.78 176 11.56 176 0 176 C0 117.92 0 59.84 0 0 Z " fill="#3F3F3F" transform="translate(1185,87)"/>
<path d="M0 0 C2.07158578 -0.00457332 4.14317006 -0.00988226 6.2147522 -0.0158844 C10.53646037 -0.02476917 14.8579833 -0.0224457 19.1796875 -0.01245117 C24.6753493 -0.00097034 30.17036765 -0.02118374 35.66594505 -0.05036831 C39.93862871 -0.0688515 44.21116161 -0.06841382 48.48387527 -0.06273079 C50.50815356 -0.06257904 52.53244303 -0.06850015 54.55668259 -0.08102226 C75.03664838 -0.18989463 92.65476023 2.41715118 108.12890625 17.08203125 C122.37424557 31.7413377 125.89624568 47.32287314 125.8125 67.18359375 C125.81452595 68.89030074 125.8174417 70.59700688 125.82119751 72.30371094 C125.82559638 75.86401692 125.81926904 79.42409564 125.80517578 82.984375 C125.78808532 87.51985777 125.79793968 92.05480771 125.81589317 96.590271 C125.82679733 100.10957769 125.82325447 103.62876062 125.8155098 107.14807129 C125.81352606 108.81921453 125.81590189 110.49036946 125.82294846 112.16149902 C125.88169773 130.00459724 122.43195196 144.93818041 109.69140625 158.1875 C108.93988281 158.92871094 108.18835938 159.66992188 107.4140625 160.43359375 C106.77597656 161.08199219 106.13789062 161.73039063 105.48046875 162.3984375 C90.65673718 176.48252342 72.21442968 176.89533956 53.0078125 176.83203125 C50.83410546 176.83405612 48.66039908 176.83697098 46.48669434 176.84072876 C41.94793176 176.84513266 37.40934722 176.8387836 32.87060547 176.82470703 C27.08088759 176.80761651 21.29158707 176.8174681 15.50188446 176.83542442 C11.01834015 176.84631466 6.53489322 176.84279195 2.05134583 176.83504105 C-0.08229116 176.8330535 -2.21593727 176.83544691 -4.3495636 176.84247971 C-25.56155169 176.89707042 -42.76242909 173.85380434 -58.5859375 158.43359375 C-72.19436364 143.32252647 -74.90866966 126.65295445 -74.88671875 106.9765625 C-74.8906187 105.50124494 -74.89495597 104.02592848 -74.89970398 102.5506134 C-74.90711762 99.47372787 -74.90691089 96.39695718 -74.90161133 93.32006836 C-74.89582829 89.41712606 -74.91274308 85.51466012 -74.935956 81.61179638 C-74.95083678 78.56847989 -74.95154571 75.52527431 -74.94844627 72.48192787 C-74.94895249 71.04491548 -74.95405524 69.60789568 -74.96425819 68.17091942 C-75.08185206 49.29533567 -71.3758094 32.54478774 -57.828125 18.609375 C-57.08820312 17.89136719 -56.34828125 17.17335938 -55.5859375 16.43359375 C-54.94914063 15.78777344 -54.31234375 15.14195313 -53.65625 14.4765625 C-38.68692012 0.22153674 -19.37987992 -0.03782453 0 0 Z M-34.0234375 42.62109375 C-34.64089844 43.31589844 -35.25835938 44.01070312 -35.89453125 44.7265625 C-41.08269898 53.03002725 -41.04665555 61.62910038 -41.01953125 71.1796875 C-41.02410329 72.60018663 -41.02941187 74.02068357 -41.03541565 75.44117737 C-41.04430488 78.40561967 -41.04197189 81.36979197 -41.03198242 84.33422852 C-41.02049698 88.10775432 -41.04071797 91.88034367 -41.06989956 95.6537466 C-41.08836456 98.58370244 -41.08794884 101.51343807 -41.08226204 104.44343758 C-41.08211008 105.83352027 -41.08804892 107.2236191 -41.10055351 108.61364555 C-41.17959439 118.83773899 -40.35324856 127.41220365 -33.3984375 135.30859375 C-28.15511368 140.59174028 -20.9566668 142.86809961 -13.67533875 142.98681641 C-12.85378799 142.98029053 -12.03223724 142.97376465 -11.18579102 142.96704102 C-9.84729095 142.97996437 -9.84729095 142.97996437 -8.48175049 142.9931488 C-5.5591453 143.01567981 -2.6375091 143.00909358 0.28515625 143 C2.33342266 143.00524134 4.38168666 143.01151969 6.4299469 143.01878357 C10.71260984 143.02916412 14.99494002 143.02466007 19.27758789 143.01000977 C24.74610655 142.99282723 30.21357393 143.01632354 35.68197536 143.05149937 C39.90899014 143.07353604 44.1357558 143.07201667 48.36281013 143.06373405 C50.37809464 143.06291794 52.39339806 143.06971578 54.40862846 143.08450508 C70.58878384 143.44454219 70.58878384 143.44454219 84.29490662 135.67823792 C89.64181184 130.11497635 91.78036233 124.00087663 91.83398438 116.37182617 C91.84245392 115.70411697 91.85092346 115.03640778 91.85964966 114.34846497 C91.88286695 112.16179857 91.88404539 109.97584235 91.8828125 107.7890625 C91.88992451 106.25360337 91.89762501 104.71814687 91.90588379 103.18269348 C91.91929441 99.97092294 91.92091341 96.75939804 91.91503906 93.54760742 C91.90915309 89.4555389 91.93970325 85.364661 91.98015594 81.27282238 C92.00615876 78.102664 92.00889895 74.9327873 92.00526428 71.762537 C92.00694453 70.25521166 92.01648025 68.74787174 92.03440857 67.24065208 C92.14199531 57.0767006 91.31358693 48.75064287 84.16796875 40.99609375 C83.44480469 40.48046875 82.72164062 39.96484375 81.9765625 39.43359375 C81.25597656 38.89734375 80.53539062 38.36109375 79.79296875 37.80859375 C74.11274341 34.52544216 68.9241503 34.13595247 62.53808594 34.14306641 C61.66569778 34.13634918 60.79330963 34.12963196 59.89448547 34.12271118 C57.02074427 34.1037702 54.14723718 34.09980872 51.2734375 34.09765625 C49.26572577 34.09122481 47.25801497 34.08449619 45.25030518 34.07748413 C41.04396392 34.06552053 36.83770472 34.06180229 32.63134766 34.06298828 C27.26044084 34.06319123 21.89006457 34.03590976 16.51928329 34.00144386 C12.37208678 33.97912474 8.22501683 33.9751523 4.07776642 33.97620773 C2.09875921 33.97385853 0.11974814 33.96507366 -1.85919952 33.949543 C-19.62022412 33.39955113 -19.62022412 33.39955113 -34.0234375 42.62109375 Z " fill="#3F3F3F" transform="translate(592.5859375,86.56640625)"/>
<path d="M0 0 C2.06872743 -0.00270328 4.13745361 -0.00659259 6.20617676 -0.01159668 C10.51599369 -0.01745245 14.82547624 -0.00905647 19.13525391 0.00976562 C24.61519248 0.0325525 30.09434697 0.01940818 35.5742569 -0.00452423 C39.83837623 -0.01908902 44.10231456 -0.01432767 48.36643982 -0.00401306 C50.38512773 -0.00137517 52.40383296 -0.00450997 54.42250061 -0.01393127 C74.98020357 -0.08885827 92.52408213 2.57706326 108.0078125 17.328125 C109.10222656 18.41867188 109.10222656 18.41867188 110.21875 19.53125 C111.06566406 20.34335938 111.06566406 20.34335938 111.9296875 21.171875 C120.84766667 30.51451985 125.5257938 43.84161243 125.50927734 56.5769043 C125.51599457 57.33747635 125.52271179 58.0980484 125.52963257 58.88166809 C125.54848466 61.37300319 125.55253059 63.86406694 125.5546875 66.35546875 C125.56112559 68.10651251 125.56785468 69.85755522 125.57485962 71.6085968 C125.58680141 75.27253713 125.59054377 78.9363834 125.58935547 82.6003418 C125.58915275 87.26245543 125.61641948 91.92395626 125.65089989 96.5859251 C125.67329803 100.20224192 125.67718904 103.81841444 125.67613602 107.43479347 C125.67847396 109.15175291 125.68719377 110.86871744 125.70280075 112.58560753 C125.8440016 129.72651308 122.42773237 145.59548206 110.31640625 158.55859375 C97.3424021 170.75947288 83.00267341 176.85605953 65.29956055 176.8059082 C64.35191833 176.81101913 63.40427612 176.81613007 62.42791748 176.82139587 C59.32036886 176.83520364 56.21304426 176.83434157 53.10546875 176.83203125 C50.92747415 176.83592336 48.74948031 176.84025908 46.57148743 176.84501648 C42.01483699 176.85246002 37.45826406 176.8522012 32.90161133 176.84692383 C27.08828638 176.84113548 21.27528069 176.85805419 15.46200848 176.8812685 C10.96560336 176.8960658 6.46927405 176.89686933 1.97284889 176.89375877 C-0.16916727 176.8942691 -2.31118799 176.899452 -4.45318031 176.90957069 C-24.04940507 176.99078214 -40.68716139 175.10784816 -55.46875 160.87109375 C-56.6134375 159.71287109 -56.6134375 159.71287109 -57.78125 158.53125 C-58.503125 157.83128906 -59.225 157.13132813 -59.96875 156.41015625 C-69.36604589 146.71029591 -74.08916721 133.8943451 -74.07177734 120.4855957 C-74.07849457 119.72502365 -74.08521179 118.9644516 -74.09213257 118.18083191 C-74.11098466 115.68949681 -74.11503059 113.19843306 -74.1171875 110.70703125 C-74.12362559 108.95598749 -74.13035468 107.20494478 -74.13735962 105.4539032 C-74.14930141 101.78996287 -74.15304377 98.1261166 -74.15185547 94.4621582 C-74.15165275 89.80004457 -74.17891948 85.13854374 -74.21339989 80.4765749 C-74.23579803 76.86025808 -74.23968904 73.24408556 -74.23863602 69.62770653 C-74.24097396 67.91074709 -74.24969377 66.19378256 -74.26530075 64.47689247 C-74.41490762 46.31554793 -70.5297944 31.45892387 -57.71875 17.78125 C-41.08532802 2.07694287 -21.93373973 -0.1023668 0 0 Z M-35.78125 44.53125 C-39.80280249 50.63891041 -40.89652247 56.47911884 -40.94238281 63.73925781 C-40.95199036 64.97113831 -40.9615979 66.2030188 -40.97149658 67.472229 C-40.97634595 68.8096091 -40.98062444 70.14699137 -40.984375 71.484375 C-40.98720238 72.16360771 -40.99002975 72.84284042 -40.99294281 73.54265594 C-41.00789889 77.13863001 -41.01715039 80.73456434 -41.02148438 84.33056641 C-41.0269575 88.02340267 -41.05097088 91.71586809 -41.07945633 95.40858841 C-41.0981891 98.267263 -41.10329397 101.12585024 -41.10482025 103.98458099 C-41.10927425 106.00125922 -41.12786845 108.01789048 -41.14678955 110.03448486 C-41.12474839 119.17446446 -40.50680459 127.30064522 -34.15625 134.34375 C-33.54523438 135.05144531 -32.93421875 135.75914062 -32.3046875 136.48828125 C-25.95881922 141.62588049 -19.38734965 143.12829381 -11.38110352 143.06469727 C-10.04260345 143.07762062 -10.04260345 143.07762062 -8.67706299 143.09080505 C-5.7544578 143.11333606 -2.8328216 143.10674983 0.08984375 143.09765625 C2.13811016 143.10289759 4.18637416 143.10917594 6.2346344 143.11643982 C10.51729734 143.12682037 14.79962752 143.12231632 19.08227539 143.10766602 C24.55079405 143.09048348 30.01826143 143.11397979 35.48666286 143.14915562 C39.71367764 143.17119229 43.9404433 143.16967292 48.16749763 143.1613903 C50.18278214 143.16057419 52.19808556 143.16737203 54.21331596 143.18216133 C70.61532963 143.32062388 70.61532963 143.32062388 84.65625 135.46875 C90.57290859 128.13209335 92.3289077 121.94098604 92.36401367 112.46923828 C92.37039352 111.29426788 92.37677338 110.11929749 92.38334656 108.90872192 C92.38445938 107.65235931 92.3855722 106.3959967 92.38671875 105.1015625 C92.39004715 103.79726288 92.39337555 102.49296326 92.39680481 101.1491394 C92.40277453 98.39385144 92.40464692 95.63859475 92.40405273 92.88330078 C92.4039512 89.37095494 92.41760361 85.85881165 92.43482494 82.34651375 C92.44868609 78.97319397 92.44803537 75.59991034 92.44921875 72.2265625 C92.45999702 70.34809128 92.45999702 70.34809128 92.47099304 68.43167114 C92.44551046 58.64761232 91.61300547 50.32676549 85.21875 42.53125 C78.25092636 36.0375257 71.64938178 34.22826709 62.31103516 34.2565918 C61.43543442 34.25148087 60.55983368 34.24636993 59.65769958 34.24110413 C56.7743336 34.22724824 53.89120774 34.22816199 51.0078125 34.23046875 C48.99530957 34.22657943 46.98280745 34.22224428 44.9703064 34.21748352 C40.7555678 34.21002977 36.54091299 34.21030634 32.32617188 34.21557617 C26.93721695 34.22136758 21.54860609 34.20444352 16.15970802 34.1812315 C12.00401825 34.16646645 7.84841079 34.16562627 3.69269943 34.16874123 C1.70646865 34.16822934 -0.2797669 34.16301662 -2.26597214 34.15292931 C-5.04912111 34.14052943 -7.83160694 34.14737799 -10.61474609 34.15893555 C-11.42747482 34.15129181 -12.24020355 34.14364807 -13.07756042 34.13577271 C-22.41430473 34.22104565 -29.52472728 37.55335437 -35.78125 44.53125 Z " fill="#3F3F3F" transform="translate(1532.78125,86.46875)"/>
<path d="M0 0 C17.82 0 35.64 0 54 0 C61.06206246 15.08713344 68.01691674 30.20156189 74.75 45.4375 C80.29568754 57.9847171 85.94087768 70.48101692 91.6875 82.9375 C97.98426613 96.59000733 104.19190478 110.27735695 110.31726074 124.00787354 C112.77269139 129.50510901 115.25301325 134.99099314 117.734375 140.4765625 C118.97557166 143.2234381 120.21657387 145.97040149 121.45755005 148.71737671 C122.27106151 150.51651614 123.08555989 152.31520968 123.90109253 154.11343384 C125.04479118 156.63562863 126.18484527 159.15944278 127.32421875 161.68359375 C127.66632385 162.43544952 128.00842896 163.1873053 128.36090088 163.96194458 C128.67968201 164.66987152 128.99846313 165.37779846 129.3269043 166.10717773 C129.60302048 166.71697983 129.87913666 167.32678192 130.16362 167.95506287 C131.24003343 170.5868783 132.10082714 173.30248142 133 176 C120.79 176 108.58 176 96 176 C86.67852541 157.35705081 86.67852541 157.35705081 82.421875 147.98046875 C81.95297852 146.94865479 81.95297852 146.94865479 81.47460938 145.89599609 C81.15298828 145.18781738 80.83136719 144.47963867 80.5 143.75 C79.80734408 142.23044486 79.1146344 140.71091422 78.421875 139.19140625 C73.21266764 127.74726102 68.09845865 116.26171788 63.01025391 104.7633667 C57.92041084 93.26324384 52.74203517 81.80652446 47.5 70.375 C38.32221126 50.3506092 38.32221126 50.3506092 35 42.9375 C34.67966797 42.22964355 34.35933594 41.52178711 34.02929688 40.79248047 C32 36.23597919 32 36.23597919 32 34 C28.7 34 25.4 34 22 34 C21.7421875 34.8264502 21.484375 35.65290039 21.21875 36.50439453 C19.85145103 40.42606654 18.2187936 44.15244861 16.5 47.9296875 C16.15251709 48.69967072 15.80503418 49.46965393 15.44702148 50.26296997 C14.30069698 52.80153529 13.15031856 55.33824236 12 57.875 C11.18849197 59.67043278 10.37729944 61.4660082 9.56640625 63.26171875 C7.88143116 66.99241624 6.19509954 70.72249604 4.5078125 74.45214844 C1.03050895 82.14123218 -2.43029013 89.8377291 -5.89111328 97.53424072 C-7.75994959 101.68985048 -9.63004302 105.84489444 -11.5 110 C-12.25000592 111.666664 -13.00000592 113.33333067 -13.75 115 C-30.40820312 152.01822917 -47.06640625 189.03645833 -63.72460938 226.0546875 C-64.0721225 226.82703735 -64.41963562 227.59938721 -64.77767944 228.3951416 C-65.4639248 229.91993415 -66.15046313 231.44459488 -66.83731079 232.96911621 C-68.72926254 237.16960347 -70.61410449 241.37315151 -72.49169922 245.58007812 C-73.11080421 246.96413849 -73.11080421 246.96413849 -73.74241638 248.37615967 C-74.54396671 250.16833948 -75.34372357 251.96132273 -76.14149475 253.75518799 C-76.5007756 254.55752869 -76.86005646 255.35986938 -77.23022461 256.18652344 C-77.54833603 256.89983826 -77.86644745 257.61315308 -78.19419861 258.3480835 C-79 260 -79 260 -80 261 C-82.73894085 261.08858646 -85.4525327 261.11523479 -88.19140625 261.09765625 C-89.01124496 261.0962413 -89.83108368 261.09482635 -90.67576599 261.09336853 C-93.30471382 261.08775289 -95.93357773 261.07519779 -98.5625 261.0625 C-100.34049357 261.05748701 -102.11848846 261.05292376 -103.89648438 261.04882812 C-108.26435545 261.03777839 -112.63216348 261.02050331 -117 261 C-115.42105148 255.88102749 -113.32916971 251.1067403 -111.10546875 246.24609375 C-110.53037567 244.97928017 -110.53037567 244.97928017 -109.94366455 243.68687439 C-109.12169162 241.87706414 -108.298378 240.06786231 -107.47384644 238.25921631 C-105.73199321 234.43830499 -103.9966237 230.61446091 -102.26087952 226.79077148 C-101.3894177 224.8711863 -100.5176223 222.95175252 -99.64549255 221.0324707 C-96.21898767 213.49053057 -92.81917127 205.93714515 -89.4375 198.375 C-82.48110514 182.83065597 -75.48993747 167.30203098 -68.49880981 151.77328491 C-65.83617913 145.85867614 -63.175429 139.94322416 -60.515625 134.02734375 C-52.35654968 115.88210399 -44.17618003 97.74671799 -35.96963501 79.62289429 C-30.53190562 67.61302237 -25.12035692 55.59204812 -19.73828125 43.55712891 C-13.22454766 29.00825167 -6.60550565 14.50741895 0 0 Z " fill="#3F3F3F" transform="translate(122,87)"/>
<path d="M0 0 C12.21 0 24.42 0 37 0 C46.18670886 18.37341772 46.18670886 18.37341772 49.0859375 24.90625 C49.42493073 25.66208374 49.76392395 26.41791748 50.1131897 27.19665527 C51.20361437 29.62970579 52.28930643 32.0648352 53.375 34.5 C54.15848826 36.25016385 54.94235114 38.00016004 55.7265625 39.75 C57.34876778 43.37045267 58.96939103 46.99160703 60.58886719 50.61328125 C64.00900107 58.25848857 67.44895124 65.89476424 70.8883667 73.53131104 C71.99983788 75.99963997 73.11063868 78.46826942 74.22119141 80.93701172 C77.70496854 88.68133545 81.19070128 96.42476526 84.68225098 104.16558838 C86.31339593 107.7821363 87.9435968 111.39910943 89.57373047 115.01611328 C90.3437691 116.72400719 91.11425942 118.43169753 91.88525391 120.13916016 C95.4715225 128.08165763 99.04715871 136.02863184 102.515625 144.0234375 C102.99805664 145.13380371 103.48048828 146.24416992 103.97753906 147.38818359 C105 150 105 150 105 152 C105.66 152 106.32 152 107 152 C107.17024689 151.45527039 107.34049377 150.91054077 107.51589966 150.3493042 C109.33274602 144.70063367 111.51421937 139.34053838 113.9921875 133.953125 C114.37416794 133.11282745 114.75614838 132.27252991 115.14970398 131.4067688 C116.38745001 128.6859946 117.63126954 125.968043 118.875 123.25 C119.74263219 121.34480329 120.60973329 119.43936463 121.47631836 117.53369141 C122.77688713 114.67381773 124.07775058 111.81408321 125.3802948 108.95510864 C128.80352236 101.44126992 132.19326987 93.91319927 135.5625 86.375 C141.45923813 73.19629453 147.3827043 60.02971608 153.31274414 46.8659668 C156.87732683 38.95137039 160.43557443 31.03414236 163.96875 23.10546875 C164.57549961 21.74543324 165.1822698 20.38540691 165.7890625 19.02539062 C166.90144804 16.53190773 168.01026484 14.03693906 169.1171875 11.54101562 C169.60445312 10.44853516 170.09171875 9.35605469 170.59375 8.23046875 C171.22313477 6.81350708 171.22313477 6.81350708 171.86523438 5.36791992 C173 3 173 3 175 0 C177.83727325 -0.26667539 180.45383045 -0.34791234 183.2890625 -0.29296875 C184.10748627 -0.28872391 184.92591003 -0.28447906 185.76913452 -0.28010559 C188.38808836 -0.26328679 191.00627802 -0.22562974 193.625 -0.1875 C195.3984264 -0.17245726 197.17186484 -0.15876814 198.9453125 -0.14648438 C203.2971703 -0.11337292 207.64845551 -0.06156952 212 0 C208.71905742 8.87015893 205.04722702 17.45503121 201 26 C199.83282793 28.48552788 198.66992684 30.97304143 197.5078125 33.4609375 C197.21319122 34.09107758 196.91856995 34.72121765 196.61502075 35.37045288 C193.6343293 41.75852739 190.74712431 48.18744855 187.875 54.625 C186.79322889 57.04829375 185.71132016 59.47152468 184.62890625 61.89453125 C184.34623398 62.52733505 184.06356171 63.16013885 183.77232361 63.81211853 C179.81615377 72.65929746 175.81100004 81.48439734 171.8125 90.3125 C166.91977758 101.11606373 162.0306904 111.92117364 157.16796875 122.73828125 C156.77366165 123.61533218 156.37935455 124.49238312 155.97309875 125.39601135 C154.11455601 129.53072344 152.25722201 133.66597321 150.40161133 137.80200195 C144.66735169 150.5664952 138.83100281 163.27781204 133 176 C115.18 176 97.36 176 79 176 C74.54079682 167.08159363 70.21599499 158.22719616 66.1875 149.125 C65.34754082 147.23794805 64.50634335 145.3514508 63.66514587 143.46495056 C63.06506665 142.11896955 62.46535196 140.77282596 61.86598206 139.42652893 C58.41609945 131.67954238 54.93341318 123.94735723 51.45083618 116.21502686 C49.91459413 112.80400197 48.37914182 109.39262179 46.84364319 105.98126221 C45.67270487 103.37988421 44.50164562 100.77856067 43.33056641 98.17724609 C39.92498975 90.61220006 36.52073035 83.04656129 33.11639404 75.48095703 C32.00423834 73.00941884 30.89202207 70.5379079 29.77978516 68.06640625 C26.28331994 60.29685636 22.7871613 52.52716889 19.29196167 44.75704956 C17.65186135 41.11101523 16.01160537 37.46505093 14.37133789 33.8190918 C13.59391655 32.09093659 12.81657041 30.36274756 12.03930664 28.63452148 C11.30661366 27.00540614 10.57379887 25.37634558 9.84085083 23.74734497 C9.15395551 22.22041969 8.46747805 20.69330635 7.78146362 19.16598511 C5.49481633 14.07998901 3.16988772 9.01276651 0.8059082 3.9621582 C0 2 0 2 0 0 Z " fill="#3F3F3F" transform="translate(256,87)"/>
<path d="M0 0 C11.22 0 22.44 0 34 0 C34 58.08 34 116.16 34 176 C22.78 176 11.56 176 0 176 C0 117.92 0 59.84 0 0 Z " fill="#3F3F3F" transform="translate(1072,87)"/>
<path d="M0 0 C12.21 0 24.42 0 37 0 C36.07446253 4.62768737 34.62387325 8.34853095 32.640625 12.5625 C32.30002548 13.29783966 31.95942596 14.03317932 31.60850525 14.790802 C30.87552601 16.37203803 30.14017109 17.95217456 29.40267944 19.53131104 C27.446206 23.72148241 25.50774472 27.91998853 23.56640625 32.1171875 C22.98026299 33.3824678 22.98026299 33.3824678 22.38227844 34.67330933 C18.92929004 42.13301406 15.5417804 49.62047303 12.1875 57.125 C11.67380859 58.27323242 11.16011719 59.42146484 10.63085938 60.60449219 C7.93055146 66.65023861 5.24498424 72.70241918 2.56640625 78.7578125 C2.00433306 80.02718981 1.44224026 81.29655843 0.88012695 82.56591797 C-0.18551448 84.97251096 -1.24759847 87.38057242 -2.30786133 89.78955078 C-3.0139856 91.38645752 -3.0139856 91.38645752 -3.734375 93.015625 C-4.14913086 93.95696289 -4.56388672 94.89830078 -4.99121094 95.86816406 C-6 98 -6 98 -7 99 C-9.73894085 99.08858646 -12.4525327 99.11523479 -15.19140625 99.09765625 C-16.01124496 99.0962413 -16.83108368 99.09482635 -17.67576599 99.09336853 C-20.30471382 99.08775289 -22.93357773 99.07519779 -25.5625 99.0625 C-27.34049357 99.05748701 -29.11848846 99.05292376 -30.89648438 99.04882812 C-35.26435545 99.03777839 -39.63216348 99.02050331 -44 99 C-42.12101238 92.99341638 -39.90977434 87.29916175 -37.2265625 81.609375 C-36.86646088 80.83498581 -36.50635925 80.06059662 -36.13534546 79.26274109 C-35.36684699 77.61104887 -34.59626031 75.96032687 -33.82373047 74.31051636 C-31.78111519 69.94744228 -29.75459201 65.57689919 -27.7265625 61.20703125 C-27.32109192 60.33430069 -26.91562134 59.46157013 -26.49786377 58.56239319 C-22.93418203 50.88248707 -19.44893258 43.16950352 -16 35.4375 C-15.4855835 34.28451416 -14.97116699 33.13152832 -14.44116211 31.94360352 C-13.44721894 29.71567838 -12.4533209 27.48773311 -11.45947266 25.25976562 C-7.68125715 16.82103471 -3.83459126 8.41320768 0 0 Z " fill="#F00912" transform="translate(44,87)"/>
<path d="M0 0 C0.66 0 1.32 0 2 0 C8.69532179 14.31305125 15.33719535 28.64841662 21.8125 43.0625 C22.31418701 44.17584717 22.81587402 45.28919434 23.33276367 46.4362793 C27.71756982 56.23051248 31.8322787 66.10166191 36 76 C12.9 76 -10.2 76 -34 76 C-31.05395368 68.92948882 -28.11291384 61.89621356 -24.9609375 54.921875 C-24.59774414 54.11482117 -24.23455078 53.30776733 -23.86035156 52.47625732 C-22.70032194 49.90004344 -21.53777741 47.32497468 -20.375 44.75 C-19.57237042 42.96942717 -18.76979919 41.18882803 -17.96728516 39.40820312 C-12.03187416 26.24744673 -6.05188576 13.10765817 0 0 Z " fill="#F00912" transform="translate(148,187)"/>
<path d="M0 0 C0 13.86 0 27.72 0 42 C-16.33208955 50.16604478 -16.33208955 50.16604478 -23.75 53.4375 C-24.52859375 53.78748047 -25.3071875 54.13746094 -26.109375 54.49804688 C-31.74978596 57 -31.74978596 57 -34 57 C-34 43.14 -34 29.28 -34 15 C-29.854375 13.081875 -25.70875 11.16375 -21.4375 9.1875 C-20.14384521 8.58832764 -18.85019043 7.98915527 -17.51733398 7.37182617 C-1.56423174 -0 -1.56423174 -0 0 0 Z " fill="#F00912" transform="translate(1106,0)"/>
<path d="M0 0 C2.31 0 4.62 0 7 0 C9.97 6.93 12.94 13.86 16 21 C17.6268029 18.55979565 18.77669952 16.42718336 19.9453125 13.76953125 C20.29980469 12.96708984 20.65429688 12.16464844 21.01953125 11.33789062 C21.38433594 10.50451172 21.74914062 9.67113281 22.125 8.8125 C22.49753906 7.96751953 22.87007812 7.12253906 23.25390625 6.25195312 C24.17179054 4.16906184 25.08705314 2.08505898 26 0 C28.31 0 30.62 0 33 0 C33 12.87 33 25.74 33 39 C30.69 39 28.38 39 26 39 C25.505 29.595 25.505 29.595 25 20 C23.02 24.29 21.04 28.58 19 33 C17.35 33 15.7 33 14 33 C12.02 29.04 10.04 25.08 8 21 C7.67 26.94 7.34 32.88 7 39 C4.69 39 2.38 39 0 39 C0 26.13 0 13.26 0 0 Z " fill="#F00912" transform="translate(698,308)"/>
<path d="M0 0 C19 0 19 0 24 3 C25.21977329 5.43954658 25.20153813 7.15305849 25.25 9.875 C25.27578125 10.73867188 25.3015625 11.60234375 25.328125 12.4921875 C24.94108924 15.45024649 23.95124005 16.79201784 22 19 C22.66 19.66 23.32 20.32 24 21 C26.55321185 24.82981778 26.76181482 27.51980332 26 32 C24.36312815 35.58552881 23.31027417 36.79315055 20 39 C17.82348633 39.22705078 17.82348633 39.22705078 15.33203125 39.1953125 C14.52741455 39.19031738 13.72279785 39.18532227 12.89379883 39.18017578 C11.36855591 39.15286377 11.36855591 39.15286377 9.8125 39.125 C6.574375 39.08375 3.33625 39.0425 0 39 C0 26.13 0 13.26 0 0 Z M7 6 C7 9.3 7 12.6 7 16 C11.50901363 16.17957899 11.50901363 16.17957899 16 16 C18.41121859 14.04366025 18.41121859 14.04366025 18.125 10.375 C18.08375 9.26125 18.0425 8.1475 18 7 C14.57067929 5.28533964 10.78283935 5.94595944 7 6 Z M7 22 C7 25.63 7 29.26 7 33 C9.413125 33.061875 9.413125 33.061875 11.875 33.125 C12.77992188 33.14820313 13.68484375 33.17140625 14.6171875 33.1953125 C17.18806994 33.24324836 17.18806994 33.24324836 19 31 C19.34490322 26.94738713 19.30163882 25.45245824 17 22 C14.56306689 21.63583953 14.56306689 21.63583953 11.875 21.8125 C10.26625 21.874375 8.6575 21.93625 7 22 Z " fill="#F00912" transform="translate(141,308)"/>
<path d="M0 0 C1.98 0 3.96 0 6 0 C10.29 7.59 14.58 15.18 19 23 C19.33 15.41 19.66 7.82 20 0 C22.31 0 24.62 0 27 0 C27 12.87 27 25.74 27 39 C24.69 39 22.38 39 20 39 C15.71 31.41 11.42 23.82 7 16 C6.67 23.59 6.34 31.18 6 39 C4.02 39 2.04 39 0 39 C0 26.13 0 13.26 0 0 Z " fill="#F00912" transform="translate(1539,308)"/>
<path d="M0 0 C1.98 0 3.96 0 6 0 C8.04830624 2.65726215 9.44308807 5.04835447 11 8 C12.1405155 10.03256155 13.29239898 12.05843459 14.4453125 14.08398438 C16.31119289 17.38126158 18.15307215 20.69206952 20 24 C20.33 16.08 20.66 8.16 21 0 C22.98 0 24.96 0 27 0 C27 12.87 27 25.74 27 39 C25.02 39 23.04 39 21 39 C18.97535991 36.33599988 17.55311812 33.93695906 16 31 C14.97536188 29.19595347 13.93798098 27.39963622 12.89868164 25.60400391 C11.25218392 22.74379078 9.62846662 19.87051744 8 17 C7.67 24.26 7.34 31.52 7 39 C4.69 39 2.38 39 0 39 C0 26.13 0 13.26 0 0 Z " fill="#F00912" transform="translate(1105,308)"/>
<path d="M0 0 C1.98 0 3.96 0 6 0 C8.04830624 2.65726215 9.44308807 5.04835447 11 8 C12.1405155 10.03256155 13.29239898 12.05843459 14.4453125 14.08398438 C16.31119289 17.38126158 18.15307215 20.69206952 20 24 C20.33 16.08 20.66 8.16 21 0 C22.98 0 24.96 0 27 0 C27 12.87 27 25.74 27 39 C25.02 39 23.04 39 21 39 C18.97535991 36.33599988 17.55311812 33.93695906 16 31 C14.97536188 29.19595347 13.93798098 27.39963622 12.89868164 25.60400391 C11.25218392 22.74379078 9.62846662 19.87051744 8 17 C7.67 24.26 7.34 31.52 7 39 C4.69 39 2.38 39 0 39 C0 26.13 0 13.26 0 0 Z " fill="#F00912" transform="translate(386,308)"/>
<path d="M0 0 C19 0 19 0 24 3 C26.67468457 6.98357277 26.85008724 11.36095249 26 16 C24.80859375 17.70703125 24.80859375 17.70703125 23.375 19.1875 C22.199375 20.5796875 22.199375 20.5796875 21 22 C21.31963489 24.97115156 21.31963489 24.97115156 23 28 C23.71413473 29.58072519 24.42217884 31.16421219 25.125 32.75 C25.47820313 33.50796875 25.83140625 34.2659375 26.1953125 35.046875 C27 37 27 37 27 39 C24.36 39 21.72 39 19 39 C17.9955866 36.7101766 16.99632388 34.4183401 16 32.125 C15.71382812 31.47402344 15.42765625 30.82304687 15.1328125 30.15234375 C13 25.2265625 13 25.2265625 13 23 C11.02 23 9.04 23 7 23 C7 28.28 7 33.56 7 39 C4.69 39 2.38 39 0 39 C0 26.13 0 13.26 0 0 Z M7 6 C7 9.63 7 13.26 7 17 C8.423125 17.061875 9.84625 17.12375 11.3125 17.1875 C12.11300781 17.22230469 12.91351562 17.25710938 13.73828125 17.29296875 C16.05687613 17.17266716 16.05687613 17.17266716 17.80859375 15.71484375 C19.36948305 13.84984169 19.36948305 13.84984169 18.75 10.375 C18.35631915 7.17736065 18.35631915 7.17736065 17 6 C13.66381769 5.85742811 10.34024394 5.95771843 7 6 Z " fill="#F00912" transform="translate(897,308)"/>
<path d="M0 0 C19 0 19 0 24 3 C26.28915825 6.92427129 26.39956442 10.52487849 26 15 C24.7492479 17.44465184 23.34795734 19.53004542 21.71875 21.73046875 C20.58536996 25.30923943 22.22034919 27.36717641 23.875 30.625 C27 36.86098655 27 36.86098655 27 39 C24.36 39 21.72 39 19 39 C17.99303432 36.89915791 16.9946411 34.79420511 16 32.6875 C15.443125 31.51574219 14.88625 30.34398437 14.3125 29.13671875 C13 26 13 26 13 23 C11.02 23 9.04 23 7 23 C7 28.28 7 33.56 7 39 C4.69 39 2.38 39 0 39 C0 26.13 0 13.26 0 0 Z M7 6 C7 9.63 7 13.26 7 17 C8.423125 17.061875 9.84625 17.12375 11.3125 17.1875 C12.11300781 17.22230469 12.91351562 17.25710938 13.73828125 17.29296875 C16.06667737 17.18341691 16.06667737 17.18341691 17.76953125 15.64453125 C19.20163247 14.00117992 19.20163247 14.00117992 19.375 11.5 C18.92687984 8.51253225 18.36602774 7.8123877 16 6 C13.71669899 5.63853543 13.71669899 5.63853543 11.3125 5.8125 C9.889375 5.874375 8.46625 5.93625 7 6 Z " fill="#F00912" transform="translate(557,308)"/>
<path d="M0 0 C18 0 18 0 24 4 C26.93874849 8.5478615 26.33059719 14.20017319 26.3125 19.4375 C26.32861328 20.36626953 26.34472656 21.29503906 26.36132812 22.25195312 C26.36509048 27.53805762 26.16224331 31.54254592 23 36 C18 39 18 39 0 39 C0 26.13 0 13.26 0 0 Z M7 6 C7 14.91 7 23.82 7 33 C15.17800695 33.85159943 15.17800695 33.85159943 18.0390625 31.59375 C19.52636061 27.57925428 19.43263457 23.74574654 19.375 19.5 C19.38660156 18.64535156 19.39820313 17.79070312 19.41015625 16.91015625 C19.39404603 13.46793894 19.23985055 10.64740149 18.0390625 7.40625 C15.17800695 5.14840057 15.17800695 5.14840057 7 6 Z " fill="#F00912" transform="translate(509,308)"/>
<path d="M0 0 C2.41756808 3.36994339 2.82139617 5.77623495 3.0625 9.875 C-0.25 10.1875 -0.25 10.1875 -3.9375 9.875 C-4.96763277 8.22678756 -5.96864628 6.55996298 -6.9375 4.875 C-9.98029372 4.20819632 -9.98029372 4.20819632 -12.9375 4.875 C-15.00685577 7.97903365 -15.19267909 8.69400019 -15.203125 12.21875 C-15.20570312 13.05277344 -15.20828125 13.88679688 -15.2109375 14.74609375 C-15.20320313 15.61363281 -15.19546875 16.48117187 -15.1875 17.375 C-15.19523437 18.24253906 -15.20296875 19.11007812 -15.2109375 20.00390625 C-15.20835938 20.83792969 -15.20578125 21.67195313 -15.203125 22.53125 C-15.20086914 23.29244141 -15.19861328 24.05363281 -15.19628906 24.83789062 C-15.05161311 27.18636746 -15.05161311 27.18636746 -12.9375 29.875 C-10.60336129 30.88646011 -9.30309024 30.95026858 -6.8125 30.4375 C-3.75437772 27.88906477 -3.68000095 24.7112549 -2.9375 20.875 C-5.2475 20.875 -7.5575 20.875 -9.9375 20.875 C-9.9375 19.225 -9.9375 17.575 -9.9375 15.875 C-5.3175 15.875 -0.6975 15.875 4.0625 15.875 C4.57889344 29.81762295 4.57889344 29.81762295 -0.5625 35.75 C-4.79957696 37.75703646 -9.37609102 38.51412316 -13.97265625 37.3671875 C-17.13357578 36.09208196 -19.92872545 34.66496466 -21.9375 31.875 C-23.39660109 27.16677975 -23.16073792 22.38408048 -23.1875 17.5 C-23.208125 16.56671875 -23.22875 15.6334375 -23.25 14.671875 C-23.28043509 9.30008075 -22.96935719 5.51152307 -19.9375 0.875 C-14.37945936 -4.49777262 -6.05817638 -4.38251058 0 0 Z " fill="#F00912" transform="translate(1176.9375,310.125)"/>
<path d="M0 0 C2.41756808 3.36994339 2.82139617 5.77623495 3.0625 9.875 C-0.25 10.1875 -0.25 10.1875 -3.9375 9.875 C-4.96763277 8.22678756 -5.96864628 6.55996298 -6.9375 4.875 C-9.98029372 4.20819632 -9.98029372 4.20819632 -12.9375 4.875 C-15.00685577 7.97903365 -15.19267909 8.69400019 -15.203125 12.21875 C-15.20570313 13.05277344 -15.20828125 13.88679688 -15.2109375 14.74609375 C-15.20320313 15.61363281 -15.19546875 16.48117187 -15.1875 17.375 C-15.19523437 18.24253906 -15.20296875 19.11007812 -15.2109375 20.00390625 C-15.20835937 20.83792969 -15.20578125 21.67195313 -15.203125 22.53125 C-15.20086914 23.29244141 -15.19861328 24.05363281 -15.19628906 24.83789062 C-15.05161311 27.18636746 -15.05161311 27.18636746 -12.9375 29.875 C-10.60336129 30.88646011 -9.30309024 30.95026858 -6.8125 30.4375 C-3.75437772 27.88906477 -3.68000095 24.7112549 -2.9375 20.875 C-5.2475 20.875 -7.5575 20.875 -9.9375 20.875 C-9.9375 19.225 -9.9375 17.575 -9.9375 15.875 C-5.3175 15.875 -0.6975 15.875 4.0625 15.875 C4.57889344 29.81762295 4.57889344 29.81762295 -0.5625 35.75 C-4.79957696 37.75703646 -9.37609102 38.51412316 -13.97265625 37.3671875 C-17.13357578 36.09208196 -19.92872545 34.66496466 -21.9375 31.875 C-23.33419174 27.32841371 -23.16014589 22.7776647 -23.1875 18.0625 C-23.208125 17.18529297 -23.22875 16.30808594 -23.25 15.40429688 C-23.28373168 9.76689023 -22.61639376 5.86035595 -19.9375 0.875 C-14.48648862 -4.57601138 -5.99075481 -4.33373752 0 0 Z " fill="#F00912" transform="translate(457.9375,310.125)"/>
<path d="M0 0 C18 0 18 0 24 4 C26.21924985 8.4384997 25.27475724 14.43865203 25.3125 19.3125 C25.34150391 20.54935547 25.37050781 21.78621094 25.40039062 23.06054688 C25.40876953 24.25357422 25.41714844 25.44660156 25.42578125 26.67578125 C25.44036377 27.76802002 25.45494629 28.86025879 25.4699707 29.9855957 C24.8885503 33.71484128 23.64218133 35.3500572 21 38 C14.35169194 40.21610269 7.00793201 39 0 39 C0 26.13 0 13.26 0 0 Z M6 6 C6 14.91 6 23.82 6 33 C9.3 33 12.6 33 16 33 C19.114706 29.01870906 19.114706 29.01870906 19.3984375 24.59375 C19.40230469 23.76746094 19.40617187 22.94117188 19.41015625 22.08984375 C19.39855469 21.23519531 19.38695312 20.38054687 19.375 19.5 C19.38660156 18.64535156 19.39820313 17.79070312 19.41015625 16.91015625 C19.40628906 16.08386719 19.40242188 15.25757813 19.3984375 14.40625 C19.39505371 13.65666016 19.39166992 12.90707031 19.38818359 12.13476562 C19.0678895 9.46941435 19.0678895 9.46941435 16 6 C12.7 6 9.4 6 6 6 Z " fill="#F00912" transform="translate(309,308)"/>
<path d="M0 0 C2.625 2.4375 2.625 2.4375 4 5 C3.67 5.99 3.34 6.98 3 8 C1.02 8.33 -0.96 8.66 -3 9 C-3.66 8.01 -4.32 7.02 -5 6 C-8.54187831 5.66661404 -8.54187831 5.66661404 -12 6 C-13.29633621 7.06645115 -13.29633621 7.06645115 -13.0625 9.5625 C-13.041875 10.366875 -13.02125 11.17125 -13 12 C-11.4840625 12.6496875 -11.4840625 12.6496875 -9.9375 13.3125 C-8.98423828 13.72435547 -8.98423828 13.72435547 -8.01171875 14.14453125 C-6.70820237 14.6988421 -5.39849026 15.2388888 -4.08203125 15.76171875 C-0.76161401 17.09979734 1.7424961 18.20095614 4 21 C5.33277007 25.42850816 5.32638282 29.10244724 3.75 33.4375 C1.77566547 36.32848985 0.14571755 37.68174512 -3.25 38.625 C-9.38139164 39.46109886 -13.67302385 39.38989391 -19 36 C-21.44621173 33.39070749 -22 32.62968776 -22 29 C-20.02 28.34 -18.04 27.68 -16 27 C-15.443125 27.639375 -14.88625 28.27875 -14.3125 28.9375 C-11.74273295 31.22945439 -10.39054502 31.73918884 -7 32 C-5.515 31.505 -5.515 31.505 -4 31 C-3.67 29.02 -3.34 27.04 -3 25 C-6.10545785 22.89630275 -8.99101525 21.65636936 -12.5625 20.625 C-15.56149384 19.64532868 -17.08073094 18.93305239 -19.5625 16.875 C-21.58351355 12.83297289 -21.77219268 9.43206426 -21 5 C-18.97074665 1.02604553 -17.47872056 0.18661988 -13.3125 -1.4375 C-8.63600965 -2.34657476 -4.39230375 -1.8430451 0 0 Z " fill="#F00912" transform="translate(774,309)"/>
<path d="M0 0 C7.92 0 15.84 0 24 0 C24 1.98 24 3.96 24 6 C18.39 6 12.78 6 7 6 C7 9.63 7 13.26 7 17 C11.95 17 16.9 17 22 17 C22 18.98 22 20.96 22 23 C17.05 23 12.1 23 7 23 C7 26.3 7 29.6 7 33 C12.61 33 18.22 33 24 33 C24 34.98 24 36.96 24 39 C16.08 39 8.16 39 0 39 C0 26.13 0 13.26 0 0 Z " fill="#F00912" transform="translate(605,308)"/>
<path d="M0 0 C2.31 0 4.62 0 7 0 C8.71473619 5.07010096 10.42357347 10.14213679 12.12695312 15.21606445 C12.70736206 16.94219674 13.28938474 18.66778728 13.87304688 20.39282227 C14.71127461 22.87115377 15.54369672 25.35136985 16.375 27.83203125 C16.63748535 28.60400345 16.8999707 29.37597565 17.17041016 30.17134094 C18.1894816 33.22759412 19 35.75552755 19 39 C16.69 39 14.38 39 12 39 C11.34 36.36 10.68 33.72 10 31 C5.71 31 1.42 31 -3 31 C-3.2165625 32.7015625 -3.2165625 32.7015625 -3.4375 34.4375 C-4 38 -4 38 -5 39 C-7.33297433 39.04092937 -9.66705225 39.04241723 -12 39 C-10.37422039 30.56276441 -7.63145497 22.55436793 -4.875 14.4375 C-4.40192249 13.03334498 -3.92926287 11.6290491 -3.45703125 10.22460938 C-2.30949994 6.81476903 -1.15632848 3.40686863 0 0 Z M3 11 C1.68 15.62 0.36 20.24 -1 25 C1.97 25 4.94 25 8 25 C7.55037804 23.03964825 7.09001752 21.08175691 6.625 19.125 C6.24214844 17.48917969 6.24214844 17.48917969 5.8515625 15.8203125 C5.21093785 12.89591545 5.21093785 12.89591545 3 11 Z " fill="#F00912" transform="translate(659,308)"/>
<path d="M0 0 C7.92 0 15.84 0 24 0 C24 1.98 24 3.96 24 6 C18.39 6 12.78 6 7 6 C7 9.63 7 13.26 7 17 C11.62 17 16.24 17 21 17 C21 18.98 21 20.96 21 23 C16.38 23 11.76 23 7 23 C7 26.3 7 29.6 7 33 C12.61 33 18.22 33 24 33 C24 34.98 24 36.96 24 39 C16.08 39 8.16 39 0 39 C0 26.13 0 13.26 0 0 Z " fill="#F00912" transform="translate(1494,308)"/>
<path d="M0 0 C7.92 0 15.84 0 24 0 C24 1.98 24 3.96 24 6 C18.39 6 12.78 6 7 6 C7 9.63 7 13.26 7 17 C11.62 17 16.24 17 21 17 C21 18.98 21 20.96 21 23 C16.38 23 11.76 23 7 23 C7 26.3 7 29.6 7 33 C12.61 33 18.22 33 24 33 C24 34.98 24 36.96 24 39 C16.08 39 8.16 39 0 39 C0 26.13 0 13.26 0 0 Z " fill="#F00912" transform="translate(1362,308)"/>
<path d="M0 0 C7.92 0 15.84 0 24 0 C24 1.98 24 3.96 24 6 C18.39 6 12.78 6 7 6 C7 9.63 7 13.26 7 17 C11.62 17 16.24 17 21 17 C21 18.98 21 20.96 21 23 C16.38 23 11.76 23 7 23 C7 26.3 7 29.6 7 33 C12.61 33 18.22 33 24 33 C24 34.98 24 36.96 24 39 C16.08 39 8.16 39 0 39 C0 26.13 0 13.26 0 0 Z " fill="#F00912" transform="translate(1228,308)"/>
<path d="M0 0 C1.4540625 0.0309375 1.4540625 0.0309375 2.9375 0.0625 C4.79083978 5.45530925 6.64220097 10.84879198 8.49169922 16.24291992 C9.12168359 18.07937153 9.75221654 19.91563505 10.38330078 21.75170898 C11.28821423 24.38476563 12.19117844 27.01848357 13.09375 29.65234375 C13.37810913 30.47838608 13.66246826 31.30442841 13.95544434 32.15550232 C15.9375 37.94862829 15.9375 37.94862829 15.9375 39.0625 C13.2975 39.0625 10.6575 39.0625 7.9375 39.0625 C7.2775 36.4225 6.6175 33.7825 5.9375 31.0625 C1.9775 31.3925 -1.9825 31.7225 -6.0625 32.0625 C-6.7225 34.3725 -7.3825 36.6825 -8.0625 39.0625 C-10.7025 39.0625 -13.3425 39.0625 -16.0625 39.0625 C-13.86626276 30.56647245 -11.22808051 22.25523031 -8.4375 13.9375 C-8.03015625 12.70773437 -7.6228125 11.47796875 -7.203125 10.2109375 C-6.81382812 9.045625 -6.42453125 7.8803125 -6.0234375 6.6796875 C-5.67071777 5.62378418 -5.31799805 4.56788086 -4.95458984 3.47998047 C-3.6982716 0.07547493 -3.6982716 0.07547493 0 0 Z M-1.0625 12.0625 C-1.56762244 13.66506108 -2.06641627 15.26961792 -2.5625 16.875 C-2.8409375 17.76832031 -3.119375 18.66164063 -3.40625 19.58203125 C-4.19038351 22.11823395 -4.19038351 22.11823395 -4.0625 25.0625 C-1.4225 25.0625 1.2175 25.0625 3.9375 25.0625 C3.62567931 23.64568366 3.31301263 22.22905349 3 20.8125 C2.82597656 20.02359375 2.65195312 19.2346875 2.47265625 18.421875 C1.989944 16.29371297 1.47586822 14.17717158 0.9375 12.0625 C0.2775 12.0625 -0.3825 12.0625 -1.0625 12.0625 Z " fill="#F00912" transform="translate(957.0625,307.9375)"/>
<path d="M0 0 C2.31 0 4.62 0 7 0 C7.02505615 0.93384521 7.0501123 1.86769043 7.07592773 2.82983398 C7.17086928 6.28325189 7.27011258 9.7364896 7.37231445 13.18969727 C7.41571813 14.68639269 7.45738913 16.18313939 7.49731445 17.67993164 C7.55488616 19.82714312 7.61861716 21.97409521 7.68359375 24.12109375 C7.72025146 25.4145874 7.75690918 26.70808105 7.79467773 28.04077148 C7.6667278 30.88555008 7.6667278 30.88555008 9 32 C12.45812169 32.33338596 12.45812169 32.33338596 16 32 C18.38948197 28.41577704 18.30233168 26.62767404 18.4140625 22.36328125 C18.45273438 21.06455078 18.49140625 19.76582031 18.53125 18.42773438 C18.56270517 17.05599427 18.59395251 15.68424939 18.625 14.3125 C18.66319197 12.92901215 18.70224442 11.54554777 18.7421875 10.16210938 C18.83660517 6.7748755 18.92218118 3.38764931 19 0 C20.98 0 22.96 0 25 0 C25.09915614 4.60809095 25.17160182 9.21555592 25.21972656 13.82446289 C25.23979558 15.39097923 25.26705751 16.95742109 25.30175781 18.52368164 C25.35048754 20.78029794 25.3730147 23.03592083 25.390625 25.29296875 C25.41127014 25.98899704 25.43191528 26.68502533 25.45318604 27.40214539 C25.45481418 30.96054137 25.08183538 32.87235016 23.14355469 35.89575195 C19.97310987 39.00805992 17.23452126 39.96841666 12.7890625 40.03125 C7.74439128 39.6960559 4.58687163 38.8110511 1 35 C-0.1687481 31.4937557 -0.12514267 28.3522134 -0.09765625 24.70703125 C-0.0962413 24.00100266 -0.09482635 23.29497406 -0.09336853 22.56755066 C-0.08777764 20.31582374 -0.07522688 18.06419679 -0.0625 15.8125 C-0.05748382 14.28450665 -0.05292112 12.75651173 -0.04882812 11.22851562 C-0.0378112 7.48563865 -0.02055287 3.74283627 0 0 Z " fill="#F00912" transform="translate(188,308)"/>
<path d="M0 0 C2.64 0 5.28 0 8 0 C8.83819158 1.62249941 9.6704116 3.24808497 10.5 4.875 C10.9640625 5.77992188 11.428125 6.68484375 11.90625 7.6171875 C13 10 13 10 13 12 C13.66 12 14.32 12 15 12 C15.268125 11.13375 15.53625 10.2675 15.8125 9.375 C16.97111987 6.08208036 18.38209839 3.08872125 20 0 C22.64 0 25.28 0 28 0 C26.06772865 5.29402916 23.15561023 9.92755539 20.265625 14.74609375 C18.71414123 17.8938531 18.71414123 17.8938531 19.5390625 20.953125 C21.24608939 24.51323455 23.1065438 27.92106564 25.125 31.3125 C29 37.88927336 29 37.88927336 29 39 C23.97927461 40.05699482 23.97927461 40.05699482 21 39 C18.09197971 35.28208247 16.02480752 31.2520958 14 27 C13.36384766 28.299375 13.36384766 28.299375 12.71484375 29.625 C7.98129292 38.61354487 7.98129292 38.61354487 4.9765625 39.796875 C3.0625 39.75 3.0625 39.75 0 39 C1.67100115 33.30841741 4.45171388 28.86176015 7.63671875 23.90234375 C9.1802517 21.16896366 9.1802517 21.16896366 8.9609375 18.578125 C7.66245602 15.09439419 5.85474874 11.98142408 3.9375 8.8125 C0 2.25 0 2.25 0 0 Z " fill="#F00912" transform="translate(1269,308)"/>
<path d="M0 0 C7.59 0 15.18 0 23 0 C23 1.98 23 3.96 23 6 C17.39 6 11.78 6 6 6 C6 9.63 6 13.26 6 17 C10.95 17 15.9 17 21 17 C21 18.98 21 20.96 21 23 C16.05 23 11.1 23 6 23 C6 26.3 6 29.6 6 33 C11.61 33 17.22 33 23 33 C23 34.98 23 36.96 23 39 C15.41 39 7.82 39 0 39 C0 26.13 0 13.26 0 0 Z " fill="#F00912" transform="translate(1635,308)"/>
<path d="M0 0 C2.7514803 3.01991741 3.89597836 4.80375109 4.25 8.875 C4.1675 9.57625 4.085 10.2775 4 11 C0.6875 11.3125 0.6875 11.3125 -3 11 C-4 9.33333333 -5 7.66666667 -6 6 C-9.56262449 5.79159217 -9.56262449 5.79159217 -13 6 C-13.0289337 9.79165074 -13.04677601 13.58327327 -13.0625 17.375 C-13.07087891 18.45523437 -13.07925781 19.53546875 -13.08789062 20.6484375 C-13.09272461 22.1953125 -13.09272461 22.1953125 -13.09765625 23.7734375 C-13.10551147 25.20308838 -13.10551147 25.20308838 -13.11352539 26.66162109 C-13.15642599 29.02324406 -13.15642599 29.02324406 -12 31 C-9.69 31 -7.38 31 -5 31 C-4.34 29.35 -3.68 27.7 -3 26 C-0.69 26 1.62 26 4 26 C3.74895913 30.26769478 3.40348094 32.49837505 0.6875 35.875 C-2.9211295 38.72833496 -2.9211295 38.72833496 -6 39 C-7.670625 39.1546875 -7.670625 39.1546875 -9.375 39.3125 C-13.72359123 38.93762145 -15.67778171 37.78139206 -19 35 C-22.18592037 30.05021549 -21.32859234 24.23665924 -21.3125 18.5625 C-21.32861328 17.43005859 -21.34472656 16.29761719 -21.36132812 15.13085938 C-21.36197266 14.03708984 -21.36261719 12.94332031 -21.36328125 11.81640625 C-21.36626221 10.82068604 -21.36924316 9.82496582 -21.37231445 8.79907227 C-20.93787088 5.53291123 -19.91883372 3.65513378 -18 1 C-12.39538525 -2.50007066 -5.94431625 -2.82949453 0 0 Z " fill="#F00912" transform="translate(1609,309)"/>
<path d="M0 0 C3.66845622 3.3016106 4.54840927 6.14539966 5 11 C1.6875 11.3125 1.6875 11.3125 -2 11 C-3.03013277 9.35178756 -4.03114628 7.68496298 -5 6 C-8.04253508 5.41654524 -8.04253508 5.41654524 -11 6 C-13.23131867 7.8076787 -13.23131867 7.8076787 -13.22705078 10.33837891 C-13.21657715 11.29147949 -13.20610352 12.24458008 -13.1953125 13.2265625 C-13.18886719 14.2578125 -13.18242188 15.2890625 -13.17578125 16.3515625 C-13.15902344 17.43179687 -13.14226562 18.51203125 -13.125 19.625 C-13.11146484 21.25695312 -13.11146484 21.25695312 -13.09765625 22.921875 C-13.07403409 25.61480152 -13.04109556 28.30729255 -13 31 C-8.9844152 31.22749691 -8.9844152 31.22749691 -5 31 C-3.96986723 29.35178756 -2.96885372 27.68496298 -2 26 C1.6875 25.6875 1.6875 25.6875 5 26 C3.65694219 33.32576985 3.65694219 33.32576985 0.625 36.4375 C-3.93699422 39.15297275 -7.68079869 39.37327728 -13 39 C-16.25053254 37.67023669 -17.65398494 36.51233631 -19.6171875 33.60546875 C-21.56951051 28.51508984 -21.43621112 23.8410818 -21.375 18.4375 C-21.38660156 17.40947266 -21.39820313 16.38144531 -21.41015625 15.32226562 C-21.37394795 6.01069793 -21.37394795 6.01069793 -18 2 C-12.60301372 -3.03718719 -6.56991436 -2.48060318 0 0 Z " fill="#F00912" transform="translate(1336,309)"/>
<path d="M0 0 C3.66845622 3.3016106 4.54840927 6.14539966 5 11 C1.6875 11.3125 1.6875 11.3125 -2 11 C-3.03013277 9.35178756 -4.03114628 7.68496298 -5 6 C-8.04253508 5.41654524 -8.04253508 5.41654524 -11 6 C-13.23131867 7.8076787 -13.23131867 7.8076787 -13.22705078 10.33837891 C-13.21657715 11.29147949 -13.20610352 12.24458008 -13.1953125 13.2265625 C-13.18886719 14.2578125 -13.18242188 15.2890625 -13.17578125 16.3515625 C-13.15902344 17.43179687 -13.14226563 18.51203125 -13.125 19.625 C-13.11146484 21.25695312 -13.11146484 21.25695312 -13.09765625 22.921875 C-13.07403409 25.61480152 -13.04109556 28.30729255 -13 31 C-8.9844152 31.22749691 -8.9844152 31.22749691 -5 31 C-3.96986723 29.35178756 -2.96885372 27.68496298 -2 26 C1.6875 25.6875 1.6875 25.6875 5 26 C3.65694219 33.32576985 3.65694219 33.32576985 0.625 36.4375 C-3.93699422 39.15297275 -7.68079869 39.37327728 -13 39 C-17.2292497 37.17373309 -18.9442316 35.06077709 -21 31 C-21.38818359 28.30859375 -21.38818359 28.30859375 -21.3984375 25.4375 C-21.40230469 24.39335937 -21.40617188 23.34921875 -21.41015625 22.2734375 C-21.39855469 21.19320313 -21.38695312 20.11296875 -21.375 19 C-21.38660156 17.91976563 -21.39820313 16.83953125 -21.41015625 15.7265625 C-21.40628906 14.68242187 -21.40242187 13.63828125 -21.3984375 12.5625 C-21.39505371 11.61503906 -21.39166992 10.66757812 -21.38818359 9.69140625 C-20.80789007 5.66803785 -19.06954331 2.99824042 -16.125 0.25 C-10.80289541 -2.88064976 -5.61164013 -2.11878749 0 0 Z " fill="#F00912" transform="translate(871,309)"/>
<path d="M0 0 C7.92 0 15.84 0 24 0 C24 1.98 24 3.96 24 6 C18.39 6 12.78 6 7 6 C7 9.63 7 13.26 7 17 C11.62 17 16.24 17 21 17 C21 18.98 21 20.96 21 23 C16.38 23 11.76 23 7 23 C7 28.28 7 33.56 7 39 C4.69 39 2.38 39 0 39 C0 26.13 0 13.26 0 0 Z " fill="#F00912" transform="translate(992,308)"/>
<path d="M0 0 C8.58 0 17.16 0 26 0 C26 1.98 26 3.96 26 6 C23.03 6 20.06 6 17 6 C17 16.89 17 27.78 17 39 C14.69 39 12.38 39 10 39 C10 28.11 10 17.22 10 6 C6.7 6 3.4 6 0 6 C0 4.02 0 2.04 0 0 Z " fill="#F00912" transform="translate(1031,308)"/>
<path d="M0 0 C2.31 0 4.62 0 7 0 C7 10.89 7 21.78 7 33 C12.61 33 18.22 33 24 33 C24 34.98 24 36.96 24 39 C16.08 39 8.16 39 0 39 C0 26.13 0 13.26 0 0 Z " fill="#F00912" transform="translate(1450,308)"/>
<path d="M0 0 C2.31 0 4.62 0 7 0 C7 10.89 7 21.78 7 33 C12.28 33 17.56 33 23 33 C23 34.98 23 36.96 23 39 C15.41 39 7.82 39 0 39 C0 26.13 0 13.26 0 0 Z " fill="#F00912" transform="translate(265,308)"/>
<path d="M0 0 C1.98 0 3.96 0 6 0 C6 10.89 6 21.78 6 33 C11.61 33 17.22 33 23 33 C23 34.98 23 36.96 23 39 C15.41 39 7.82 39 0 39 C0 26.13 0 13.26 0 0 Z " fill="#F00912" transform="translate(1407,308)"/>
<path d="M0 0 C1.98 0 3.96 0 6 0 C6 12.87 6 25.74 6 39 C4.02 39 2.04 39 0 39 C0 26.13 0 13.26 0 0 Z " fill="#F00912" transform="translate(1076,308)"/>
<path d="M0 0 C1.98 0 3.96 0 6 0 C6 12.87 6 25.74 6 39 C4.02 39 2.04 39 0 39 C0 26.13 0 13.26 0 0 Z " fill="#F00912" transform="translate(357,308)"/>
<path d="M0 0 C1.98 0 3.96 0 6 0 C6 12.87 6 25.74 6 39 C4.02 39 2.04 39 0 39 C0 26.13 0 13.26 0 0 Z " fill="#F00912" transform="translate(236,308)"/>
<path d="M0 0 C2.31 0 4.62 0 7 0 C7.3125 3.25 7.3125 3.25 7 7 C4.625 9.4375 4.625 9.4375 2 11 C1.34 11 0.68 11 0 11 C0 7.37 0 3.74 0 0 Z " fill="#F00912" transform="translate(797,341)"/>
</svg>
